<?xml version="1.0" encoding="UTF-8" standalone="no"?>
<!-- Created with Inkscape (http://www.inkscape.org/) -->

<svg
   width="38.97464"
   height="39.062519"
   viewBox="0 0 10.31204 10.335292"
   version="1.1"
   id="svg1"
   xml:space="preserve"
   xmlns="http://www.w3.org/2000/svg"
   xmlns:svg="http://www.w3.org/2000/svg"><defs
     id="defs1" /><g
     id="layer1"
     transform="translate(-103.0366,-95.532669)"><path
       d="m 108.19236,95.532669 a 5.1562152,5.1676779 0 0 0 -5.15576,5.167641 5.1562152,5.1676779 0 0 0 5.15576,5.16765 5.1562152,5.1676779 0 0 0 5.15628,-5.16765 5.1562152,5.1676779 0 0 0 -5.15628,-5.167641 z m -1.6216,2.770891 0.24184,0.859896 4.02715,0.01654 -0.81236,2.517674 -3.15898,0.0398 -0.57051,-2.898012 h -0.66145 l -0.0258,-0.529683 z m 0.32762,3.62614 h 3.17552 v 0.38964 h -3.17552 z m 0.88522,0.49195 a 0.4551661,0.45910466 0 0 1 0.45475,0.45941 0.4551661,0.45910466 0 0 1 -0.45475,0.45888 0.4551661,0.45910466 0 0 1 -0.45527,-0.45888 0.4551661,0.45910466 0 0 1 0.45527,-0.45941 z m 1.59577,0 a 0.4551661,0.45910466 0 0 1 0.45527,0.45941 0.4551661,0.45910466 0 0 1 -0.45527,0.45888 0.4551661,0.45910466 0 0 1 -0.45527,-0.45888 0.4551661,0.45910466 0 0 1 0.45527,-0.45941 z"
       style="fill:#4b5c76;fill-opacity:1;fill-rule:evenodd;stroke:none;stroke-width:0.0585647;stroke-linecap:round;stroke-linejoin:round;paint-order:fill markers stroke"
       id="path5" /></g></svg>
