<svg width="151" height="15" viewBox="0 0 151 15" fill="none" xmlns="http://www.w3.org/2000/svg">
<path fill-rule="evenodd" clip-rule="evenodd" d="M7.26625 0.0186482C5.33908 0.0187717 3.49088 0.805364 2.12821 2.20538C0.765538 3.6054 1.71364e-06 5.50418 0 7.48405C6.17435e-07 9.46391 0.765538 11.3627 2.12821 12.7627C3.49088 14.1627 5.33908 14.9493 7.26625 14.9494C8.59765 14.946 9.90255 14.5669 11.0385 13.8534C12.1744 13.1399 13.0977 12.1196 13.7076 10.9037L10.2334 9.48242C9.93265 10.1887 9.48782 10.7789 8.94574 11.1906C8.40365 11.6024 7.78435 11.8207 7.153 11.8224C6.69178 11.8224 6.23508 11.7069 5.80896 11.4823C5.38284 11.2578 4.99565 10.9286 4.66951 10.5137C4.34337 10.0987 4.08466 9.60613 3.90815 9.06396C3.73164 8.52179 3.64079 7.94069 3.64079 7.35385C3.64079 6.76701 3.73164 6.18591 3.90815 5.64374C4.08466 5.10157 4.34337 4.60895 4.66951 4.19401C4.99565 3.77906 5.38283 3.4499 5.80895 3.22535C6.23507 3.0008 6.69178 2.88525 7.153 2.88528C7.78973 2.88559 8.4144 3.10614 8.96021 3.52334C9.50602 3.94053 9.95242 4.53868 10.2517 5.25379L13.5688 3.77256C12.9328 2.63231 12.0151 1.68474 10.9085 1.02559C9.80184 0.366452 8.54543 0.0190977 7.26625 0.0186482Z" fill="#4B5C76"/>
<path fill-rule="evenodd" clip-rule="evenodd" d="M22.8677 0.169331C20.9343 0.169503 19.0802 0.94023 17.7131 2.31198C16.3461 3.68374 15.5781 5.54417 15.578 7.48404C15.5781 9.42391 16.3461 11.2843 17.7131 12.6561C19.0802 14.0279 20.9343 14.7986 22.8677 14.7988C23.8251 14.7988 24.7731 14.6096 25.6576 14.242C26.5421 13.8744 27.3457 13.3356 28.0227 12.6564C28.6997 11.9771 29.2367 11.1708 29.6031 10.2833C29.9695 9.39582 30.158 8.44463 30.158 7.48404C30.158 6.52345 29.9695 5.57227 29.6031 4.6848C29.2367 3.79733 28.6997 2.99096 28.0227 2.31172C27.3457 1.63249 26.5421 1.09369 25.6576 0.726099C24.7731 0.358506 23.825 0.169319 22.8677 0.169331ZM20.5749 4.09148L20.9169 5.30865L26.6108 5.33206L25.4622 8.89579L20.9958 8.95212L20.1891 4.85003H19.2539L19.2174 4.10028L20.5749 4.09148ZM21.0381 9.22422H25.5279V9.77575H21.0381V9.22422ZM22.2897 9.92057C22.4604 9.92073 22.624 9.98932 22.7446 10.1113C22.8651 10.2332 22.9328 10.3985 22.9327 10.5708C22.9326 10.743 22.8649 10.9082 22.7443 11.03C22.6237 11.1517 22.4603 11.2202 22.2897 11.2204C22.1191 11.2204 21.9554 11.152 21.8347 11.0302C21.714 10.9084 21.6461 10.7432 21.646 10.5708C21.646 10.4855 21.6626 10.4009 21.6949 10.322C21.7272 10.2431 21.7747 10.1714 21.8344 10.111C21.8942 10.0506 21.9652 10.0027 22.0433 9.97003C22.1214 9.93736 22.2052 9.92055 22.2897 9.92057ZM24.546 9.92057C24.6305 9.92055 24.7143 9.93736 24.7924 9.97003C24.8705 10.0027 24.9415 10.0506 25.0013 10.111C25.061 10.1714 25.1085 10.2431 25.1408 10.322C25.1731 10.4009 25.1897 10.4855 25.1897 10.5708C25.1896 10.7432 25.1217 10.9084 25.001 11.0302C24.8803 11.152 24.7166 11.2204 24.546 11.2204C24.3753 11.2204 24.2116 11.152 24.0909 11.0302C23.9702 10.9084 23.9024 10.7432 23.9023 10.5708C23.9022 10.4855 23.9188 10.4009 23.9511 10.322C23.9835 10.2431 24.0309 10.1714 24.0907 10.111C24.1504 10.0506 24.2214 10.0027 24.2995 9.97003C24.3777 9.93736 24.4614 9.92055 24.546 9.92057Z" fill="#4B5C76"/>
<path fill-rule="evenodd" clip-rule="evenodd" d="M34.3292 0.570937L32.0285 14.3028H35.7153L36.9318 7.04445L39.9976 14.3972H41.7563L44.5028 7.15344L45.8975 14.297H49.4463L46.8445 0.976169L46.77 0.591413H43.2271L43.2228 0.601607L40.7401 7.15121L38.0112 0.605992L37.9966 0.570883L34.3292 0.570937Z" fill="#4B5C76"/>
<path fill-rule="evenodd" clip-rule="evenodd" d="M56.8097 0.363908C56.2428 0.367257 55.6805 0.457471 55.1453 0.630899C55.0589 0.662154 54.9733 0.695572 54.8888 0.731116V0.586276H51.3167V14.6042H54.8888V9.55265C55.4986 9.78438 56.1507 9.90532 56.8097 9.90887C58.1743 9.90895 59.4831 9.40623 60.4482 8.51129C61.4132 7.61636 61.9554 6.40251 61.9556 5.13676C61.9556 4.50996 61.8225 3.8893 61.5639 3.31021C61.3053 2.73112 60.9263 2.20495 60.4485 1.76175C59.9706 1.31854 59.4033 0.966984 58.779 0.727142C58.1546 0.4873 57.4855 0.363869 56.8097 0.363908ZM56.1207 3.36733C56.3982 3.36729 56.6729 3.41548 56.9293 3.50917C57.1856 3.60285 57.4186 3.74018 57.6148 3.91332C57.811 4.08646 57.9666 4.29202 58.0728 4.51825C58.179 4.74448 58.2337 4.98696 58.2337 5.23184C58.2337 5.47673 58.179 5.71922 58.0728 5.94545C57.9666 6.17169 57.811 6.37724 57.6148 6.55038C57.4186 6.72352 57.1856 6.86085 56.9293 6.95454C56.6729 7.04822 56.3982 7.09641 56.1207 7.09637C55.6776 7.09364 55.2466 6.968 54.8888 6.73721V3.72648C55.2466 3.4957 55.6776 3.37005 56.1207 3.36733Z" fill="#4B5C76"/>
<path fill-rule="evenodd" clip-rule="evenodd" d="M69.0188 0.466325C68.4453 0.470337 67.8775 0.579172 67.3434 0.787442V0.579707H63.8261V14.4265H67.3434V9.52122C67.436 9.55931 67.5298 9.59443 67.6247 9.62653L70.8125 14.5018H74.7492L71.3115 9.24397C72.04 8.83708 72.6468 8.24366 73.0692 7.52482C73.4916 6.80598 73.7143 5.98771 73.7146 5.15431C73.7146 4.53866 73.5932 3.92903 73.3572 3.36024C73.1212 2.79145 72.7753 2.27464 72.3393 1.83931C71.9032 1.40399 71.3855 1.05867 70.8158 0.82309C70.2461 0.587511 69.6354 0.466287 69.0188 0.466325ZM68.5606 3.25616C69.0344 3.25623 69.4888 3.43481 69.8238 3.75264C70.1588 4.07047 70.347 4.50152 70.3471 4.95098C70.3472 5.1736 70.301 5.39404 70.2113 5.59973C70.1215 5.80542 69.99 5.99234 69.8241 6.14979C69.6582 6.30724 69.4612 6.43214 69.2444 6.51738C69.0277 6.60261 68.7953 6.64649 68.5606 6.64652C68.107 6.64275 67.6718 6.47539 67.3434 6.17839V3.72503C67.6716 3.42776 68.1068 3.26013 68.5606 3.25616Z" fill="#4B5C76"/>
<path fill-rule="evenodd" clip-rule="evenodd" d="M82.2171 0.420954L82.2375 0.480238H81.9497L76.6196 14.5318H80.3035L83.864 5.14629L87.1395 14.5472H91.0637L86.1414 0.420975L82.2171 0.420954Z" fill="#4B5C76"/>
<path d="M83.8512 13.9522C84.8544 13.9522 85.6676 13.1086 85.6676 12.068C85.6676 11.0274 84.8544 10.1838 83.8512 10.1838C82.8481 10.1838 82.0349 11.0274 82.0349 12.068C82.0349 13.1086 82.8481 13.9522 83.8512 13.9522Z" fill="#DC1903"/>
<path fill-rule="evenodd" clip-rule="evenodd" d="M92.9342 0.545309V3.54434H95.8954V14.4228H99.2506V3.54434H102.288V0.545309H92.9342Z" fill="#4B5C76"/>
<path fill-rule="evenodd" clip-rule="evenodd" d="M111.737 0.152879C110.741 0.152903 109.756 0.342558 108.836 0.711018C107.917 1.07948 107.081 1.61953 106.378 2.30033C105.674 2.98113 105.116 3.78934 104.735 4.67882C104.354 5.56831 104.158 6.52166 104.158 7.48441C104.158 9.42866 104.957 11.2932 106.378 12.668C107.799 14.0428 109.727 14.8152 111.737 14.8152C113.746 14.8152 115.674 14.0428 117.095 12.668C118.516 11.2932 119.315 9.42866 119.315 7.48441C119.315 6.52166 119.119 5.56831 118.738 4.67882C118.357 3.78934 117.799 2.98113 117.095 2.30033C116.392 1.61953 115.556 1.07948 114.637 0.711018C113.717 0.342558 112.732 0.152903 111.737 0.152879ZM111.762 3.59371C112.292 3.59369 112.817 3.69691 113.307 3.89746C113.797 4.09802 114.242 4.39199 114.617 4.76259C114.992 5.13319 115.29 5.57317 115.492 6.05737C115.695 6.54158 115.8 7.06055 115.8 7.58463C115.8 8.64294 115.374 9.65788 114.617 10.4062C113.86 11.1545 112.833 11.5748 111.762 11.5748C110.691 11.5747 109.665 11.1542 108.908 10.4059C108.151 9.65765 107.725 8.64282 107.725 7.58463C107.725 6.52632 108.15 5.51129 108.907 4.76285C109.664 4.01441 110.691 3.59386 111.762 3.59371Z" fill="#4B5C76"/>
<path fill-rule="evenodd" clip-rule="evenodd" d="M121.185 0.46156V2.98514V11.9998V14.4129H124.829V14.3164C125.312 14.4369 125.806 14.5007 126.302 14.5066C128.076 14.5066 129.777 13.7676 131.032 12.4522C132.286 11.1368 132.991 9.35276 132.991 7.49247C132.991 5.63219 132.286 3.84811 131.032 2.53272C129.777 1.21733 128.076 0.478372 126.302 0.478407C125.806 0.48431 125.312 0.54809 124.829 0.668582V0.461581L121.185 0.46156ZM125.137 3.60908C128.257 3.61857 129.546 5.54446 129.333 7.45735C129.469 9.44141 128.062 11.6782 124.829 11.302C124.823 11.3014 124.819 11.301 124.814 11.3005V3.61425C124.82 3.61406 124.824 3.61443 124.829 3.61425C124.933 3.61057 125.036 3.6088 125.137 3.60908Z" fill="#4B5C76"/>
<path fill-rule="evenodd" clip-rule="evenodd" d="M142.439 1.12639e-08C141.444 -5.3911e-05 140.458 0.193494 139.539 0.569597C138.62 0.9457 137.784 1.497 137.081 2.19199C136.377 2.88699 135.819 3.71208 135.438 4.62016C135.057 5.52824 134.861 6.50152 134.861 7.48442C134.862 9.46935 135.66 11.3729 137.081 12.7764C138.502 14.1798 140.429 14.9682 142.439 14.9681C144.448 14.968 146.375 14.1795 147.796 12.7761C149.217 11.3727 150.015 9.46922 150.016 7.48442C150.016 5.49948 149.217 3.59584 147.796 2.19224C146.376 0.78865 144.448 8.00151e-05 142.439 1.12639e-08ZM142.369 3.46644C142.877 3.46646 143.38 3.57485 143.85 3.78542C144.319 3.99599 144.746 4.30462 145.105 4.69369C145.464 5.08276 145.749 5.54463 145.944 6.05296C146.138 6.56129 146.238 7.10611 146.238 7.65631C146.238 8.20651 146.138 8.75132 145.944 9.25965C145.749 9.76797 145.464 10.2299 145.105 10.6189C144.746 11.008 144.319 11.3166 143.85 11.5272C143.38 11.7378 142.877 11.8462 142.369 11.8462C141.861 11.8463 141.357 11.7379 140.888 11.5274C140.418 11.3169 139.991 11.0083 139.632 10.6192C139.273 10.2301 138.988 9.76821 138.793 9.25983C138.599 8.75145 138.498 8.20657 138.499 7.65631C138.498 7.10605 138.599 6.56117 138.793 6.05279C138.988 5.54441 139.273 5.08249 139.632 4.69341C139.991 4.30433 140.418 3.99572 140.888 3.78519C141.357 3.57466 141.861 3.46635 142.369 3.46644Z" fill="#4B5C76"/>
</svg>
